{"title":"Powers.S01.2160p.WEBRip.10bit.HEVC.x265.AAC-2.0-CHRONOS","uid":15323561,"size":14574714183,"categoryP":"video","categoryS":"tv_shows","magnet":"?xt=urn:btih:6a4f439dfbeaa80e4295399972dd6254b5b38910&amp;dn=Powers.S01.2160p.WEBRip.10bit.HEVC.x265.AAC-2.0-CHRONOS&amp;tr=udp%3A%2F%2Ftracker.leechers-paradise.org%3A6969&amp;tr=udp%3A%2F%2Fzer0day.ch%3A1337&amp;tr=udp%3A%2F%2Fopen.demonii.com%3A1337&amp;tr=udp%3A%2F%2Ftracker.coppersurfer.tk%3A6969&amp;tr=udp%3A%2F%2Fexodus.desync.com%3A6969","seeders":1,"leechers":0,"uploader":"Midnight44","files":10,"time":1468671921,"description":"Format : Matroska\r\nFormat version : Version 4 / Version 2\r\nFile size : 1.51 GiB\r\nDuration : 50 min\r\nOverall bit rate : 4 256 kb/s\r\nID : 1\r\nFormat : HEVC\r\nFormat/Info : High Efficiency Video Coding\r\nFormat profile : Main   @Main\r\nCodec ID : V_MPEGH/ISO/HEVC\r\nDuration : 50 min\r\nBit rate : 4 172 kb/s\r\nWidth : 3 840 pixels\r\nHeight : 2 160 pixels\r\nDisplay aspect ratio : 16:9\r\nFrame rate mode : Constant\r\nFrame rate : 23.976 (24000/1001) FPS\r\nColor space : YUV\r\nChroma subsampling : 4:2:0\r\nBit depth : 10 bits\r\nBits/(Pixel*Frame) : 0.021\r\nStream size : 1.48 GiB (98%)\r\nEncoding settings : wpp / ctu=64 / min-cu-size=8 / max-tu-size=32 / tu-intra-depth=1 / tu-inter-depth=1 / me=1 / subme=2 / merange=57 / no-rect / no-amp / max-merge=2 / temporal-mvp / no-early-skip / rdpenalty=0 / no-tskip / no-tskip-fast / strong-intra-smoothing / no-lossless / no-cu-lossless / no-constrained-intra / fast-intra / open-gop / no-temporal-layers / interlace=0 / keyint=250 / min-keyint=23 / scenecut=40 / rc-lookahead=15 / lookahead-slices=0 / bframes=4 / bframe-bias=0 / b-adapt=0 / ref=2 / limit-refs=0 / weightp / no-weightb / aq-mode=1 / qg-size=32 / aq-strength=1.00 / cbqpoffs=0 / crqpoffs=0 / rd=2 / psy-rd=0.30 / rdoq-level=0 / psy-rdoq=0.00 / signhide / deblock / sao / no-sao-non-deblock / b-pyramid / cutree / rc=2 / pass / bitrate=4173 / qcomp=0.60 / qpmin=0 / qpmax=51 / qpstep=4 / cplxblur=20.0 / qblur=0.5 / ipratio=1.40 / pbratio=1.30\r\nDefault : Yes\r\nForced : No\r\n\r\nAudio\r\nID : 2\r\nFormat : AAC\r\nFormat/Info : Advanced Audio Codec\r\nFormat profile : HE-AAC / LC\r\nCodec ID : A_AAC\r\nDuration : 50 min\r\nBit rate : 82.3 kb/s\r\nChannel(s) : 2 channels\r\nChannel positions : Front: L R\r\nSampling rate : 48.0 kHz / 24.0 kHz\r\nFrame rate : 23.438 FPS (1024 spf)\r\nCompression mode : Lossy\r\nDelay relative to video : 40 ms\r\nStream size : 29.9 MiB (2%)\r\nLanguage : English\r\nDefault : Yes\r\nForced : No\r\n\r\nText\r\nID : 3\r\nFormat : UTF-8\r\nCodec ID : S_TEXT/UTF8\r\nCodec ID/Info : UTF-8 Plain Text\r\nDuration : 49 min\r\nBit rate : 55 b/s\r\nCount of elements : 760\r\nStream size : 20.2 KiB (0%)\r\nLanguage : English\r\nDefault : No\r\nForced : No","torrent":{"xt":"urn:btih:6a4f439dfbeaa80e4295399972dd6254b5b38910","amp;dn":"Powers.S01.2160p.WEBRip.10bit.HEVC.x265.AAC-2.0-CHRONOS","amp;tr":["udp%3A%2F%2Ftracker.leechers-paradise.org%3A6969","udp%3A%2F%2Fzer0day.ch%3A1337","udp%3A%2F%2Fopen.demonii.com%3A1337","udp%3A%2F%2Ftracker.coppersurfer.tk%3A6969","udp%3A%2F%2Fexodus.desync.com%3A6969"],"infoHash":"6a4f439dfbeaa80e4295399972dd6254b5b38910","infoHashBuffer":{"type":"Buffer","data":[106,79,67,157,251,234,168,14,66,149,57,153,114,221,98,84,181,179,137,16]},"announce":[],"urlList":[]}}